# xmcd
#
# Track frame offsets:
#	150
#	85417
#	118817
#	179543
#	216158
#
# Disc length: 3285 seconds
#
# Revision: 0
# Processed by: cddbd v1.5.2PL0 Copyright (c) Steve Scherf et al.
# Submitted via: audiograbber 1.83.01
#
DISCID=460cd305
DTITLE=Grateful Dead - 94-07-21 Deer Creek Music Centre, Noblesville IN
DYEAR=1900
DGENRE=
TTITLE0=Space
TTITLE1=All Along The Watchtower
TTITLE2=The Days Between
TTITLE3=Good Lovin'
TTITLE4=Liberty
EXTD=
EXTT0=
EXTT1=
EXTT2=
EXTT3=
EXTT4=
PLAYORDER=
